# MagicaVoxel @ Ephtracy

# group
o 

# material
mtllib Money.mtl
usemtl palette

# normals
vn -1 0 0
vn 1 0 0
vn 0 0 1
vn 0 0 -1
vn 0 -1 0
vn 0 1 0

# texcoords
vt 0.00976563 0.5
vt 0.0175781 0.5
vt 0.0214844 0.5

# verts
v -0.3 1.2 -0.6
v -0.3 1.2 -0.9
v -0.3 2.3 -0.6
v -0.3 2.3 -0.9
v -0.2 1.1 -0.6
v -0.2 1.1 -0.9
v -0.2 1.2 -0.6
v -0.2 1.2 -0.9
v -0.2 2.3 -0.6
v -0.2 2.3 -0.9
v -0.2 2.4 -0.6
v -0.2 2.4 -0.9
v -0.1 1 -0.6
v -0.1 1 -0.9
v -0.1 1.1 -0.6
v -0.1 1.1 -0.9
v -0.1 1.3 -0.5
v -0.1 1.3 -0.6
v -0.1 1.3 -0.9
v -0.1 1.3 -1
v -0.1 2.2 -0.5
v -0.1 2.2 -0.6
v -0.1 2.3 -0.9
v -0.1 2.3 -1
v -0.1 2.4 -0.6
v -0.1 2.4 -0.9
v -0.1 2.5 -0.6
v -0.1 2.5 -0.9
v 2.98023e-008 1.2 -0.5
v 2.98023e-008 1.2 -0.6
v 2.98023e-008 1.2 -0.9
v 2.98023e-008 1.2 -1
v 2.98023e-008 1.3 -0.5
v 2.98023e-008 1.3 -0.6
v 2.98023e-008 1.3 -0.9
v 2.98023e-008 1.3 -1
v 2.98023e-008 2.2 -0.5
v 2.98023e-008 2.2 -0.6
v 2.98023e-008 2.3 -0.5
v 2.98023e-008 2.3 -0.6
v 2.98023e-008 2.3 -0.9
v 2.98023e-008 2.3 -1
v 2.98023e-008 2.4 -0.9
v 2.98023e-008 2.4 -1
v 0.1 0.9 -0.6
v 0.1 0.9 -0.9
v 0.1 1 -0.6
v 0.1 1 -0.9
v 0.1 1.1 -0.5
v 0.1 1.1 -0.6
v 0.1 1.1 -0.9
v 0.1 1.1 -1
v 0.1 1.2 -0.5
v 0.1 1.2 -0.6
v 0.1 1.2 -0.9
v 0.1 1.2 -1
v 0.1 2.3 -0.5
v 0.1 2.3 -0.6
v 0.1 2.4 -0.5
v 0.1 2.4 -0.6
v 0.1 2.5 -0.6
v 0.1 2.5 -0.9
v 0.1 2.6 -0.6
v 0.1 2.6 -0.9
v 0.4 1.3 -0.5
v 0.4 1.3 -0.6
v 0.4 1.3 -0.9
v 0.4 1.3 -1
v 0.4 2.2 -0.5
v 0.4 2.2 -0.6
v 0.4 2.2 -0.9
v 0.4 2.2 -1
v 0.3 1.3 -0.5
v 0.3 1.3 -0.6
v 0.3 1.3 -0.9
v 0.3 1.3 -1
v 0.3 2.2 -0.5
v 0.3 2.2 -0.6
v 0.3 2.2 -0.9
v 0.3 2.2 -1
v 0.6 0.9 -0.6
v 0.6 0.9 -0.9
v 0.6 1 -0.6
v 0.6 1 -0.9
v 0.6 1.1 -0.5
v 0.6 1.1 -0.6
v 0.6 1.1 -0.9
v 0.6 1.1 -1
v 0.6 1.2 -0.5
v 0.6 1.2 -0.6
v 0.6 1.2 -0.9
v 0.6 1.2 -1
v 0.6 2.3 -0.5
v 0.6 2.3 -0.6
v 0.6 2.3 -0.9
v 0.6 2.3 -1
v 0.6 2.4 -0.5
v 0.6 2.4 -0.6
v 0.6 2.4 -0.9
v 0.6 2.4 -1
v 0.6 2.5 -0.6
v 0.6 2.5 -0.7
v 0.6 2.5 -0.8
v 0.6 2.5 -0.9
v 0.6 2.6 -0.6
v 0.6 2.6 -0.7
v 0.6 2.6 -0.9
v 0.7 1.2 -0.5
v 0.7 1.2 -0.6
v 0.7 1.2 -0.9
v 0.7 1.2 -1
v 0.7 1.3 -0.5
v 0.7 1.3 -0.6
v 0.7 1.3 -0.9
v 0.7 1.3 -1
v 0.7 2.2 -0.5
v 0.7 2.2 -0.6
v 0.7 2.2 -0.9
v 0.7 2.2 -1
v 0.7 2.3 -0.5
v 0.7 2.3 -0.6
v 0.7 2.3 -0.9
v 0.7 2.3 -1
v 0.8 1 -0.6
v 0.8 1 -0.9
v 0.8 1.1 -0.6
v 0.8 1.1 -0.9
v 0.8 1.3 -0.5
v 0.8 1.3 -0.6
v 0.8 1.3 -0.9
v 0.8 1.3 -1
v 0.8 1.9 -0.6
v 0.8 2 -0.6
v 0.8 2.1 -0.5
v 0.8 2.1 -0.6
v 0.8 2.2 -0.5
v 0.8 2.2 -0.6
v 0.8 2.2 -0.9
v 0.8 2.2 -1
v 0.8 2.4 -0.6
v 0.8 2.4 -0.7
v 0.8 2.4 -0.8
v 0.8 2.4 -0.9
v 0.8 2.5 -0.6
v 0.8 2.5 -0.8
v 0.8 2.5 -0.9
v 0.9 1.1 -0.6
v 0.9 1.1 -0.9
v 0.9 1.2 -0.6
v 0.9 1.2 -0.9
v 0.9 2.3 -0.6
v 0.9 2.3 -0.7
v 0.9 2.3 -0.9
v 0.9 2.4 -0.6
v 0.9 2.4 -0.7
v 0.9 2.4 -0.9
v 1 1.2 -0.6
v 1 1.2 -0.9
v 1 1.8 -0.6
v 1 1.8 -0.7
v 1 1.9 -0.7
v 1 1.9 -0.8
v 1 2 -0.7
v 1 2 -0.8
v 1 2.1 -0.6
v 1 2.1 -0.7
v 1 2.3 -0.6
v 1 2.3 -0.9
v -0.1 1.3 -0.5
v -0.1 2.2 -0.5
v 2.98023e-008 1.2 -0.5
v 2.98023e-008 1.3 -0.5
v 2.98023e-008 2.2 -0.5
v 2.98023e-008 2.3 -0.5
v 0.1 1.1 -0.5
v 0.1 1.2 -0.5
v 0.1 2.3 -0.5
v 0.1 2.4 -0.5
v 0.3 1.3 -0.5
v 0.3 2.2 -0.5
v 0.4 1.3 -0.5
v 0.4 2.2 -0.5
v 0.6 1.1 -0.5
v 0.6 1.2 -0.5
v 0.6 2.1 -0.5
v 0.6 2.3 -0.5
v 0.6 2.4 -0.5
v 0.7 1.2 -0.5
v 0.7 1.3 -0.5
v 0.7 2.2 -0.5
v 0.7 2.3 -0.5
v 0.8 1.3 -0.5
v 0.8 2.1 -0.5
v 0.8 2.2 -0.5
v -0.3 1.2 -0.6
v -0.3 2.3 -0.6
v -0.2 1.1 -0.6
v -0.2 1.2 -0.6
v -0.2 2.3 -0.6
v -0.2 2.4 -0.6
v -0.1 1 -0.6
v -0.1 1.1 -0.6
v -0.1 1.3 -0.6
v -0.1 2.2 -0.6
v -0.1 2.4 -0.6
v -0.1 2.5 -0.6
v 2.98023e-008 1.2 -0.6
v 2.98023e-008 1.3 -0.6
v 2.98023e-008 2.2 -0.6
v 2.98023e-008 2.3 -0.6
v 0.1 0.9 -0.6
v 0.1 1 -0.6
v 0.1 1.1 -0.6
v 0.1 1.2 -0.6
v 0.1 2.3 -0.6
v 0.1 2.4 -0.6
v 0.1 2.5 -0.6
v 0.1 2.6 -0.6
v 0.5 2.4 -0.6
v 0.5 2.6 -0.6
v 0.6 0.9 -0.6
v 0.6 1 -0.6
v 0.6 1.1 -0.6
v 0.6 1.2 -0.6
v 0.6 2.3 -0.6
v 0.6 2.4 -0.6
v 0.6 2.5 -0.6
v 0.6 2.6 -0.6
v 0.7 1.2 -0.6
v 0.7 1.3 -0.6
v 0.7 2.2 -0.6
v 0.7 2.3 -0.6
v 0.8 1 -0.6
v 0.8 1.1 -0.6
v 0.8 1.3 -0.6
v 0.8 1.9 -0.6
v 0.8 2 -0.6
v 0.8 2.1 -0.6
v 0.8 2.2 -0.6
v 0.8 2.4 -0.6
v 0.8 2.5 -0.6
v 0.9 1.1 -0.6
v 0.9 1.2 -0.6
v 0.9 1.8 -0.6
v 0.9 1.9 -0.6
v 0.9 2 -0.6
v 0.9 2.1 -0.6
v 0.9 2.2 -0.6
v 0.9 2.3 -0.6
v 0.9 2.4 -0.6
v 1 1.2 -0.6
v 1 1.8 -0.6
v 1 2.1 -0.6
v 1 2.3 -0.6
v -0.3 1.2 -0.9
v -0.3 2.3 -0.9
v -0.2 1.1 -0.9
v -0.2 1.2 -0.9
v -0.2 2.3 -0.9
v -0.2 2.4 -0.9
v -0.1 1 -0.9
v -0.1 1.1 -0.9
v -0.1 1.3 -0.9
v -0.1 2.3 -0.9
v -0.1 2.4 -0.9
v -0.1 2.5 -0.9
v 2.98023e-008 1.2 -0.9
v 2.98023e-008 1.3 -0.9
v 2.98023e-008 2.3 -0.9
v 2.98023e-008 2.4 -0.9
v 0.1 0.9 -0.9
v 0.1 1 -0.9
v 0.1 1.1 -0.9
v 0.1 1.2 -0.9
v 0.1 2.5 -0.9
v 0.1 2.6 -0.9
v 0.6 0.9 -0.9
v 0.6 1 -0.9
v 0.6 1.1 -0.9
v 0.6 1.2 -0.9
v 0.6 2.3 -0.9
v 0.6 2.4 -0.9
v 0.6 2.5 -0.9
v 0.6 2.6 -0.9
v 0.7 1.2 -0.9
v 0.7 1.3 -0.9
v 0.7 2.2 -0.9
v 0.7 2.3 -0.9
v 0.8 1 -0.9
v 0.8 1.1 -0.9
v 0.8 1.3 -0.9
v 0.8 2.2 -0.9
v 0.8 2.4 -0.9
v 0.8 2.5 -0.9
v 0.9 1.1 -0.9
v 0.9 1.2 -0.9
v 0.9 2.3 -0.9
v 0.9 2.4 -0.9
v 1 1.2 -0.9
v 1 2.3 -0.9
v -0.1 1.3 -1
v -0.1 2.3 -1
v 2.98023e-008 1.2 -1
v 2.98023e-008 1.3 -1
v 2.98023e-008 2.3 -1
v 2.98023e-008 2.4 -1
v 0.1 1.1 -1
v 0.1 1.2 -1
v 0.3 1.3 -1
v 0.3 2.2 -1
v 0.4 1.3 -1
v 0.4 2.2 -1
v 0.6 1.1 -1
v 0.6 1.2 -1
v 0.6 2.3 -1
v 0.6 2.4 -1
v 0.7 1.2 -1
v 0.7 1.3 -1
v 0.7 2.2 -1
v 0.7 2.3 -1
v 0.8 1.3 -1
v 0.8 2.2 -1
v 0.1 0.9 -0.6
v 0.6 0.9 -0.6
v 0.1 0.9 -0.9
v 0.6 0.9 -0.9
v -0.1 1 -0.6
v 0.1 1 -0.6
v 0.6 1 -0.6
v 0.8 1 -0.6
v -0.1 1 -0.9
v 0.1 1 -0.9
v 0.6 1 -0.9
v 0.8 1 -0.9
v 0.1 1.1 -0.5
v 0.6 1.1 -0.5
v -0.2 1.1 -0.6
v -0.1 1.1 -0.6
v 0.1 1.1 -0.6
v 0.6 1.1 -0.6
v 0.8 1.1 -0.6
v 0.9 1.1 -0.6
v -0.2 1.1 -0.9
v -0.1 1.1 -0.9
v 0.1 1.1 -0.9
v 0.6 1.1 -0.9
v 0.8 1.1 -0.9
v 0.9 1.1 -0.9
v 0.1 1.1 -1
v 0.6 1.1 -1
v 2.98023e-008 1.2 -0.5
v 0.1 1.2 -0.5
v 0.6 1.2 -0.5
v 0.7 1.2 -0.5
v -0.3 1.2 -0.6
v -0.2 1.2 -0.6
v 2.98023e-008 1.2 -0.6
v 0.1 1.2 -0.6
v 0.6 1.2 -0.6
v 0.7 1.2 -0.6
v 0.9 1.2 -0.6
v 1 1.2 -0.6
v -0.3 1.2 -0.9
v -0.2 1.2 -0.9
v 2.98023e-008 1.2 -0.9
v 0.1 1.2 -0.9
v 0.6 1.2 -0.9
v 0.7 1.2 -0.9
v 0.9 1.2 -0.9
v 1 1.2 -0.9
v 2.98023e-008 1.2 -1
v 0.1 1.2 -1
v 0.6 1.2 -1
v 0.7 1.2 -1
v -0.1 1.3 -0.5
v 2.98023e-008 1.3 -0.5
v 0.7 1.3 -0.5
v 0.8 1.3 -0.5
v -0.1 1.3 -0.6
v 2.98023e-008 1.3 -0.6
v 0.7 1.3 -0.6
v 0.8 1.3 -0.6
v -0.1 1.3 -0.9
v 2.98023e-008 1.3 -0.9
v 0.7 1.3 -0.9
v 0.8 1.3 -0.9
v -0.1 1.3 -1
v 2.98023e-008 1.3 -1
v 0.7 1.3 -1
v 0.8 1.3 -1
v 0.3 2.2 -0.5
v 0.4 2.2 -0.5
v 0.3 2.2 -0.6
v 0.4 2.2 -0.6
v 0.3 2.2 -0.9
v 0.4 2.2 -0.9
v 0.3 2.2 -1
v 0.4 2.2 -1
v 0.3 1.3 -0.5
v 0.4 1.3 -0.5
v 0.3 1.3 -0.6
v 0.4 1.3 -0.6
v 0.3 1.3 -0.9
v 0.4 1.3 -0.9
v 0.3 1.3 -1
v 0.4 1.3 -1
v -0.1 2.2 -0.5
v 2.98023e-008 2.2 -0.5
v 0.7 2.2 -0.5
v 0.8 2.2 -0.5
v -0.1 2.2 -0.6
v 2.98023e-008 2.2 -0.6
v 0.7 2.2 -0.6
v 0.8 2.2 -0.6
v 0.7 2.2 -0.9
v 0.8 2.2 -0.9
v 0.7 2.2 -1
v 0.8 2.2 -1
v 2.98023e-008 2.3 -0.5
v 0.1 2.3 -0.5
v 0.6 2.3 -0.5
v 0.7 2.3 -0.5
v -0.3 2.3 -0.6
v -0.2 2.3 -0.6
v 2.98023e-008 2.3 -0.6
v 0.1 2.3 -0.6
v 0.6 2.3 -0.6
v 0.7 2.3 -0.6
v 0.9 2.3 -0.6
v 1 2.3 -0.6
v 0.9 2.3 -0.7
v -0.3 2.3 -0.9
v -0.2 2.3 -0.9
v -0.1 2.3 -0.9
v 2.98023e-008 2.3 -0.9
v 0.6 2.3 -0.9
v 0.7 2.3 -0.9
v 0.9 2.3 -0.9
v 1 2.3 -0.9
v -0.1 2.3 -1
v 2.98023e-008 2.3 -1
v 0.6 2.3 -1
v 0.7 2.3 -1
v 0.1 2.4 -0.5
v 0.6 2.4 -0.5
v -0.2 2.4 -0.6
v -0.1 2.4 -0.6
v 0.1 2.4 -0.6
v 0.5 2.4 -0.6
v 0.6 2.4 -0.6
v 0.8 2.4 -0.6
v 0.9 2.4 -0.6
v 0.8 2.4 -0.7
v 0.9 2.4 -0.7
v 0.8 2.4 -0.8
v -0.2 2.4 -0.9
v -0.1 2.4 -0.9
v 2.98023e-008 2.4 -0.9
v 0.6 2.4 -0.9
v 0.8 2.4 -0.9
v 0.9 2.4 -0.9
v 2.98023e-008 2.4 -1
v 0.6 2.4 -1
v -0.1 2.5 -0.6
v 0.1 2.5 -0.6
v 0.6 2.5 -0.6
v 0.8 2.5 -0.6
v 0.6 2.5 -0.7
v 0.6 2.5 -0.8
v 0.8 2.5 -0.8
v -0.1 2.5 -0.9
v 0.1 2.5 -0.9
v 0.6 2.5 -0.9
v 0.8 2.5 -0.9
v 0.1 2.6 -0.6
v 0.5 2.6 -0.6
v 0.6 2.6 -0.6
v 0.5 2.6 -0.7
v 0.6 2.6 -0.7
v 0.1 2.6 -0.9
v 0.6 2.6 -0.9

# faces
f 3/3/1 2/3/1 1/3/1
f 4/3/1 2/3/1 3/3/1
f 7/3/1 6/3/1 5/3/1
f 8/3/1 6/3/1 7/3/1
f 11/3/1 10/3/1 9/3/1
f 12/3/1 10/3/1 11/3/1
f 15/3/1 14/3/1 13/3/1
f 16/3/1 14/3/1 15/3/1
f 21/2/1 18/2/1 17/2/1
f 22/2/1 18/2/1 21/2/1
f 23/2/1 20/2/1 19/2/1
f 24/2/1 20/2/1 23/2/1
f 27/3/1 26/3/1 25/3/1
f 28/3/1 26/3/1 27/3/1
f 33/2/1 30/2/1 29/2/1
f 34/2/1 30/2/1 33/2/1
f 35/2/1 32/2/1 31/2/1
f 36/2/1 32/2/1 35/2/1
f 39/2/1 38/2/1 37/2/1
f 40/2/1 38/2/1 39/2/1
f 43/2/1 42/2/1 41/2/1
f 44/2/1 42/2/1 43/2/1
f 47/3/1 46/3/1 45/3/1
f 48/3/1 46/3/1 47/3/1
f 53/2/1 50/2/1 49/2/1
f 54/2/1 50/2/1 53/2/1
f 55/2/1 52/2/1 51/2/1
f 56/2/1 52/2/1 55/2/1
f 59/2/1 58/2/1 57/2/1
f 60/2/1 58/2/1 59/2/1
f 63/3/1 62/3/1 61/3/1
f 64/3/1 62/3/1 63/3/1
f 69/2/1 66/2/1 65/2/1
f 70/3/1 67/3/1 66/3/1
f 70/2/1 66/2/1 69/2/1
f 71/2/1 68/2/1 67/2/1
f 71/3/1 67/3/1 70/3/1
f 72/2/1 68/2/1 71/2/1
f 73/2/2 74/2/2 77/2/2
f 74/3/2 75/3/2 78/3/2
f 77/2/2 74/2/2 78/2/2
f 75/2/2 76/2/2 79/2/2
f 78/3/2 75/3/2 79/3/2
f 79/2/2 76/2/2 80/2/2
f 81/3/2 82/3/2 83/3/2
f 83/3/2 82/3/2 84/3/2
f 85/2/2 86/2/2 89/2/2
f 89/2/2 86/2/2 90/2/2
f 87/2/2 88/2/2 91/2/2
f 91/2/2 88/2/2 92/2/2
f 93/2/2 94/2/2 97/2/2
f 97/2/2 94/2/2 98/2/2
f 95/2/2 96/2/2 99/2/2
f 99/2/2 96/2/2 100/2/2
f 101/1/2 102/1/2 105/1/2
f 103/3/2 104/3/2 106/3/2
f 105/1/2 102/1/2 106/1/2
f 102/3/2 103/3/2 106/3/2
f 106/3/2 104/3/2 107/3/2
f 108/2/2 109/2/2 112/2/2
f 112/2/2 109/2/2 113/2/2
f 110/2/2 111/2/2 114/2/2
f 114/2/2 111/2/2 115/2/2
f 116/1/2 117/1/2 120/1/2
f 120/1/2 117/1/2 121/1/2
f 118/2/2 119/2/2 122/2/2
f 122/2/2 119/2/2 123/2/2
f 124/3/2 125/3/2 126/3/2
f 126/3/2 125/3/2 127/3/2
f 128/2/2 129/2/2 132/2/2
f 128/2/2 132/2/2 133/2/2
f 128/2/2 133/2/2 134/2/2
f 134/2/2 133/2/2 135/2/2
f 134/1/2 135/1/2 136/1/2
f 136/1/2 135/1/2 137/1/2
f 130/2/2 131/2/2 138/2/2
f 138/2/2 131/2/2 139/2/2
f 140/1/2 141/1/2 144/1/2
f 141/1/2 142/1/2 144/1/2
f 142/3/2 143/3/2 145/3/2
f 144/1/2 142/1/2 145/1/2
f 145/3/2 143/3/2 146/3/2
f 147/3/2 148/3/2 149/3/2
f 149/3/2 148/3/2 150/3/2
f 151/1/2 152/1/2 154/1/2
f 152/3/2 153/3/2 155/3/2
f 154/1/2 152/1/2 155/1/2
f 155/3/2 153/3/2 156/3/2
f 157/3/2 158/3/2 159/3/2
f 159/3/2 158/3/2 160/3/2
f 159/1/2 160/1/2 161/1/2
f 160/3/2 158/3/2 161/3/2
f 161/3/2 158/3/2 162/3/2
f 159/1/2 161/1/2 163/1/2
f 161/1/2 162/1/2 163/1/2
f 162/3/2 158/3/2 164/3/2
f 163/1/2 162/1/2 164/1/2
f 159/1/2 163/1/2 165/1/2
f 163/3/2 164/3/2 166/3/2
f 165/1/2 163/1/2 166/1/2
f 165/3/2 166/3/2 167/3/2
f 164/3/2 158/3/2 168/3/2
f 167/3/2 166/3/2 168/3/2
f 166/3/2 164/3/2 168/3/2
f 172/2/3 170/2/3 169/2/3
f 173/2/3 170/2/3 172/2/3
f 176/2/3 172/2/3 171/2/3
f 176/2/3 174/2/3 173/2/3
f 176/2/3 173/2/3 172/2/3
f 177/2/3 174/2/3 176/2/3
f 179/2/3 176/2/3 175/2/3
f 179/2/3 178/2/3 177/2/3
f 179/2/3 177/2/3 176/2/3
f 180/2/3 178/2/3 179/2/3
f 181/2/3 179/2/3 175/2/3
f 182/2/3 178/2/3 180/2/3
f 183/2/3 181/2/3 175/2/3
f 183/2/3 182/2/3 181/2/3
f 184/2/3 182/2/3 183/2/3
f 185/2/3 182/2/3 184/2/3
f 186/2/3 178/2/3 182/2/3
f 186/2/3 182/2/3 185/2/3
f 187/2/3 178/2/3 186/2/3
f 188/2/3 185/2/3 184/2/3
f 189/2/3 185/2/3 188/2/3
f 190/1/3 186/1/3 185/1/3
f 191/1/3 186/1/3 190/1/3
f 192/2/3 185/2/3 189/2/3
f 193/1/3 190/1/3 185/1/3
f 193/2/3 185/2/3 192/2/3
f 194/1/3 190/1/3 193/1/3
f 198/3/3 196/3/3 195/3/3
f 199/3/3 196/3/3 198/3/3
f 202/3/3 198/3/3 197/3/3
f 202/3/3 200/3/3 199/3/3
f 202/3/3 199/3/3 198/3/3
f 203/3/3 200/3/3 202/3/3
f 204/3/3 200/3/3 203/3/3
f 205/3/3 200/3/3 204/3/3
f 207/3/3 202/3/3 201/3/3
f 207/3/3 203/3/3 202/3/3
f 208/3/3 203/3/3 207/3/3
f 209/3/3 206/3/3 205/3/3
f 209/3/3 205/3/3 204/3/3
f 210/3/3 206/3/3 209/3/3
f 212/3/3 207/3/3 201/3/3
f 213/3/3 207/3/3 212/3/3
f 214/3/3 207/3/3 213/3/3
f 215/3/3 206/3/3 210/3/3
f 216/3/3 206/3/3 215/3/3
f 217/3/3 206/3/3 216/3/3
f 219/3/3 218/3/3 217/3/3
f 219/3/3 217/3/3 216/3/3
f 220/3/3 218/3/3 219/3/3
f 221/3/3 212/3/3 211/3/3
f 221/3/3 213/3/3 212/3/3
f 222/3/3 213/3/3 221/3/3
f 223/3/3 213/3/3 222/3/3
f 226/1/3 220/1/3 219/1/3
f 227/1/3 220/1/3 226/1/3
f 228/1/3 220/1/3 227/1/3
f 229/3/3 224/3/3 223/3/3
f 229/3/3 223/3/3 222/3/3
f 232/1/3 227/1/3 226/1/3
f 232/1/3 226/1/3 225/1/3
f 233/3/3 230/3/3 229/3/3
f 233/3/3 229/3/3 222/3/3
f 234/3/3 230/3/3 233/3/3
f 235/3/3 230/3/3 234/3/3
f 239/1/3 232/1/3 231/1/3
f 240/1/3 227/1/3 232/1/3
f 240/1/3 232/1/3 239/1/3
f 241/1/3 227/1/3 240/1/3
f 242/3/3 235/3/3 234/3/3
f 242/3/3 236/3/3 235/3/3
f 243/3/3 236/3/3 242/3/3
f 244/3/3 236/3/3 243/3/3
f 245/1/3 237/1/3 236/1/3
f 245/3/3 236/3/3 244/3/3
f 246/3/3 238/3/3 237/3/3
f 246/1/3 237/1/3 245/1/3
f 246/3/3 239/3/3 238/3/3
f 247/3/3 239/3/3 246/3/3
f 248/1/3 240/1/3 239/1/3
f 248/3/3 239/3/3 247/3/3
f 249/1/3 240/1/3 248/1/3
f 250/1/3 240/1/3 249/1/3
f 251/3/3 244/3/3 243/3/3
f 252/1/3 245/1/3 244/1/3
f 252/3/3 244/3/3 251/3/3
f 252/1/3 247/1/3 246/1/3
f 252/1/3 246/1/3 245/1/3
f 253/3/3 248/3/3 247/3/3
f 253/1/3 247/1/3 252/1/3
f 253/3/3 249/3/3 248/3/3
f 254/3/3 249/3/3 253/3/3
f 255/3/4 256/3/4 258/3/4
f 258/3/4 256/3/4 259/3/4
f 257/3/4 258/3/4 262/3/4
f 259/3/4 260/3/4 262/3/4
f 258/3/4 259/3/4 262/3/4
f 262/3/4 260/3/4 263/3/4
f 263/3/4 260/3/4 264/3/4
f 264/3/4 260/3/4 265/3/4
f 261/3/4 262/3/4 267/3/4
f 262/3/4 263/3/4 267/3/4
f 267/3/4 263/3/4 268/3/4
f 265/3/4 266/3/4 269/3/4
f 264/3/4 265/3/4 269/3/4
f 269/3/4 266/3/4 270/3/4
f 261/3/4 267/3/4 272/3/4
f 272/3/4 267/3/4 273/3/4
f 273/3/4 267/3/4 274/3/4
f 270/3/4 266/3/4 275/3/4
f 271/3/4 272/3/4 277/3/4
f 272/3/4 273/3/4 277/3/4
f 277/3/4 273/3/4 278/3/4
f 278/3/4 273/3/4 279/3/4
f 275/3/4 276/3/4 282/3/4
f 270/3/4 275/3/4 282/3/4
f 282/3/4 276/3/4 283/3/4
f 283/3/4 276/3/4 284/3/4
f 279/3/4 280/3/4 285/3/4
f 278/3/4 279/3/4 285/3/4
f 282/3/4 283/3/4 288/3/4
f 281/3/4 282/3/4 288/3/4
f 285/3/4 286/3/4 289/3/4
f 278/3/4 285/3/4 289/3/4
f 289/3/4 286/3/4 290/3/4
f 290/3/4 286/3/4 291/3/4
f 287/3/4 288/3/4 292/3/4
f 288/3/4 283/3/4 293/3/4
f 292/3/4 288/3/4 293/3/4
f 293/3/4 283/3/4 294/3/4
f 290/3/4 291/3/4 295/3/4
f 291/3/4 292/3/4 295/3/4
f 292/3/4 293/3/4 295/3/4
f 295/3/4 293/3/4 296/3/4
f 296/3/4 293/3/4 297/3/4
f 297/3/4 293/3/4 298/3/4
f 296/3/4 297/3/4 299/3/4
f 299/3/4 297/3/4 300/3/4
f 301/2/4 302/2/4 304/2/4
f 304/2/4 302/2/4 305/2/4
f 303/2/4 304/2/4 308/2/4
f 305/2/4 306/2/4 308/2/4
f 304/2/4 305/2/4 308/2/4
f 308/2/4 306/2/4 309/2/4
f 307/2/4 308/2/4 309/2/4
f 309/2/4 306/2/4 310/2/4
f 307/2/4 309/2/4 311/2/4
f 310/2/4 306/2/4 312/2/4
f 307/2/4 311/2/4 313/2/4
f 311/2/4 312/2/4 313/2/4
f 313/2/4 312/2/4 314/2/4
f 312/2/4 306/2/4 315/2/4
f 314/2/4 312/2/4 315/2/4
f 315/2/4 306/2/4 316/2/4
f 314/2/4 315/2/4 317/2/4
f 317/2/4 315/2/4 318/2/4
f 318/2/4 315/2/4 319/2/4
f 319/2/4 315/2/4 320/2/4
f 318/2/4 319/2/4 321/2/4
f 321/2/4 319/2/4 322/2/4
f 325/3/5 324/3/5 323/3/5
f 326/3/5 324/3/5 325/3/5
f 331/3/5 328/3/5 327/3/5
f 332/3/5 328/3/5 331/3/5
f 333/3/5 330/3/5 329/3/5
f 334/3/5 330/3/5 333/3/5
f 339/2/5 336/2/5 335/2/5
f 340/2/5 336/2/5 339/2/5
f 343/3/5 338/3/5 337/3/5
f 344/3/5 338/3/5 343/3/5
f 347/3/5 342/3/5 341/3/5
f 348/3/5 342/3/5 347/3/5
f 349/2/5 346/2/5 345/2/5
f 350/2/5 346/2/5 349/2/5
f 357/2/5 352/2/5 351/2/5
f 358/2/5 352/2/5 357/2/5
f 359/2/5 354/2/5 353/2/5
f 360/2/5 354/2/5 359/2/5
f 363/3/5 356/3/5 355/3/5
f 364/3/5 356/3/5 363/3/5
f 369/3/5 362/3/5 361/3/5
f 370/3/5 362/3/5 369/3/5
f 371/2/5 366/2/5 365/2/5
f 372/2/5 366/2/5 371/2/5
f 373/2/5 368/2/5 367/2/5
f 374/2/5 368/2/5 373/2/5
f 379/2/5 376/2/5 375/2/5
f 380/2/5 376/2/5 379/2/5
f 381/2/5 378/2/5 377/2/5
f 382/2/5 378/2/5 381/2/5
f 387/2/5 384/2/5 383/2/5
f 388/2/5 384/2/5 387/2/5
f 389/2/5 386/2/5 385/2/5
f 390/2/5 386/2/5 389/2/5
f 393/2/5 392/2/5 391/2/5
f 394/2/5 392/2/5 393/2/5
f 395/3/5 394/3/5 393/3/5
f 396/3/5 394/3/5 395/3/5
f 397/2/5 396/2/5 395/2/5
f 398/2/5 396/2/5 397/2/5
f 399/2/6 400/2/6 401/2/6
f 401/2/6 400/2/6 402/2/6
f 401/3/6 402/3/6 403/3/6
f 403/3/6 402/3/6 404/3/6
f 403/2/6 404/2/6 405/2/6
f 405/2/6 404/2/6 406/2/6
f 407/2/6 408/2/6 411/2/6
f 411/2/6 408/2/6 412/2/6
f 409/1/6 410/1/6 413/1/6
f 413/1/6 410/1/6 414/1/6
f 415/2/6 416/2/6 417/2/6
f 417/2/6 416/2/6 418/2/6
f 419/2/6 420/2/6 425/2/6
f 425/2/6 420/2/6 426/2/6
f 421/1/6 422/1/6 427/1/6
f 427/1/6 422/1/6 428/1/6
f 429/3/6 430/3/6 431/3/6
f 423/3/6 424/3/6 432/3/6
f 432/3/6 424/3/6 433/3/6
f 431/3/6 430/3/6 438/3/6
f 438/3/6 430/3/6 439/3/6
f 434/2/6 435/2/6 440/2/6
f 440/2/6 435/2/6 441/2/6
f 436/2/6 437/2/6 442/2/6
f 442/2/6 437/2/6 443/2/6
f 444/2/6 445/2/6 448/2/6
f 448/2/6 445/2/6 449/2/6
f 449/2/6 445/2/6 450/2/6
f 451/1/6 452/1/6 453/1/6
f 453/1/6 452/1/6 454/1/6
f 453/3/6 454/3/6 455/3/6
f 446/3/6 447/3/6 456/3/6
f 456/3/6 447/3/6 457/3/6
f 455/3/6 454/3/6 460/3/6
f 460/3/6 454/3/6 461/3/6
f 458/2/6 459/2/6 462/2/6
f 462/2/6 459/2/6 463/2/6
f 466/1/6 467/1/6 468/1/6
f 468/1/6 467/1/6 469/1/6
f 469/1/6 467/1/6 470/1/6
f 464/3/6 465/3/6 471/3/6
f 471/3/6 465/3/6 472/3/6
f 469/3/6 470/3/6 473/3/6
f 473/3/6 470/3/6 474/3/6
f 475/3/6 476/3/6 478/3/6
f 476/1/6 477/1/6 478/1/6
f 478/1/6 477/1/6 479/1/6
f 475/3/6 478/3/6 480/3/6
f 478/3/6 479/3/6 480/3/6
f 480/3/6 479/3/6 481/3/6
