# MagicaVoxel @ Ephtracy

# group
o 

# material
mtllib PointT.mtl
usemtl palette

# normals
vn -1 0 0
vn 1 0 0
vn 0 0 1
vn 0 0 -1
vn 0 -1 0
vn 0 1 0

# texcoords
vt 0.115234 0.5
vt 0.185547 0.5
vt 0.994141 0.5

# verts
v -1.2 0 0.1
v -1.2 0 -0.1
v -1.2 0.1 0.1
v -1.2 0.1 -0.1
v -1.1 0 0.2
v -1.1 0 0.1
v -1.1 0 -0.1
v -1.1 0 -0.2
v -1.1 0.1 0.2
v -1.1 0.1 0.1
v -1.1 0.1 -0.1
v -1.1 0.1 -0.2
v -1 0 0.3
v -1 0 0.2
v -1 0 -0.2
v -1 0 -0.3
v -1 0.1 0.3
v -1 0.1 0.2
v -1 0.1 -0.2
v -1 0.1 -0.3
v -0.9 0 0.4
v -0.9 0 0.3
v -0.9 0 -0.3
v -0.9 0 -0.4
v -0.9 0.1 0.4
v -0.9 0.1 0.3
v -0.9 0.1 -0.3
v -0.9 0.1 -0.4
v -0.8 0 0.5
v -0.8 0 0.4
v -0.8 0 -0.4
v -0.8 0 -0.5
v -0.8 0.1 0.5
v -0.8 0.1 0.4
v -0.8 0.1 -0.4
v -0.8 0.1 -0.5
v -0.7 0 0.6
v -0.7 0 0.5
v -0.7 0 -0.5
v -0.7 0 -0.6
v -0.7 0.1 0.6
v -0.7 0.1 0.5
v -0.7 0.1 -0.5
v -0.7 0.1 -0.6
v -0.6 0 0.7
v -0.6 0 0.6
v -0.6 0 -0.6
v -0.6 0 -0.7
v -0.6 0.1 0.7
v -0.6 0.1 0.6
v -0.6 0.1 -0.6
v -0.6 0.1 -0.7
v -0.5 0 0.8
v -0.5 0 0.7
v -0.5 0 -0.7
v -0.5 0 -0.8
v -0.5 0.1 0.8
v -0.5 0.1 0.7
v -0.5 0.1 -0.1
v -0.5 0.1 -0.3
v -0.5 0.1 -0.7
v -0.5 0.1 -0.8
v -0.5 0.2 -0.1
v -0.5 0.2 -0.3
v -0.4 0 0.9
v -0.4 0 0.8
v -0.4 0 -0.8
v -0.4 0 -0.9
v -0.4 0.1 0.9
v -0.4 0.1 0.8
v -0.4 0.1 -0.8
v -0.4 0.1 -0.9
v -0.3 0.1 0.1
v -0.3 0.1 0
v -0.3 0.2 0.1
v -0.3 0.2 0
v 1.19209e-007 0 -0.2
v 1.19209e-007 0 -0.3
v 1.19209e-007 0.1 -0.1
v 1.19209e-007 0.1 -0.2
v 1.19209e-007 0.2 -0.1
v 1.19209e-007 0.2 -0.3
v -0.3 0 0.9
v -0.3 0 0.3
v -0.3 0 -0.2
v -0.3 0 -0.9
v -0.3 0.1 0.9
v -0.3 0.1 0.3
v -0.3 0.1 -0.1
v -0.3 0.1 -0.2
v -0.3 0.1 -0.3
v -0.3 0.1 -0.9
v -0.3 0.2 -0.1
v -0.3 0.2 -0.3
v 1.19209e-007 0.1 0.1
v 1.19209e-007 0.1 0
v 1.19209e-007 0.2 0.1
v 1.19209e-007 0.2 0
v 0.2 0 -0.2
v 0.2 0 -0.3
v 0.2 0.1 -0.1
v 0.2 0.1 -0.2
v 0.2 0.2 -0.1
v 0.2 0.2 -0.3
v 0.8 0 0.3
v 0.8 0 -0.2
v 0.8 0.1 0.3
v 0.8 0.1 -0.2
v -0.4 0 0.9
v -0.4 0.1 0.9
v -0.3 0 0.9
v -0.3 0.1 0.9
v -0.5 0 0.8
v -0.5 0.1 0.8
v -0.4 0 0.8
v -0.4 0.1 0.8
v -0.6 0 0.7
v -0.6 0.1 0.7
v -0.5 0 0.7
v -0.5 0.1 0.7
v -0.7 0 0.6
v -0.7 0.1 0.6
v -0.6 0 0.6
v -0.6 0.1 0.6
v -0.8 0 0.5
v -0.8 0.1 0.5
v -0.7 0 0.5
v -0.7 0.1 0.5
v -0.9 0 0.4
v -0.9 0.1 0.4
v -0.8 0 0.4
v -0.8 0.1 0.4
v -1 0 0.3
v -1 0.1 0.3
v -0.9 0 0.3
v -0.9 0.1 0.3
v -0.3 0 0.3
v -0.3 0.1 0.3
v 0.8 0 0.3
v 0.8 0.1 0.3
v -1.1 0 0.2
v -1.1 0.1 0.2
v -1 0 0.2
v -1 0.1 0.2
v -1.2 0 0.1
v -1.2 0.1 0.1
v -1.1 0 0.1
v -1.1 0.1 0.1
v -0.3 0.1 0.1
v -0.3 0.2 0.1
v 1.19209e-007 0.1 0.1
v 1.19209e-007 0.2 0.1
v -0.5 0.1 -0.1
v -0.5 0.2 -0.1
v -0.3 0.1 -0.1
v -0.3 0.2 -0.1
v 1.19209e-007 0.1 -0.1
v 1.19209e-007 0.2 -0.1
v 0.2 0.1 -0.1
v 0.2 0.2 -0.1
v -0.3 0.1 0
v -0.3 0.2 0
v 1.19209e-007 0.1 0
v 1.19209e-007 0.2 0
v -1.2 0 -0.1
v -1.2 0.1 -0.1
v -1.1 0 -0.1
v -1.1 0.1 -0.1
v -1.1 0 -0.2
v -1.1 0.1 -0.2
v -1 0 -0.2
v -1 0.1 -0.2
v -0.3 0 -0.2
v -0.3 0.1 -0.2
v 1.19209e-007 0 -0.2
v 1.19209e-007 0.1 -0.2
v 0.2 0 -0.2
v 0.2 0.1 -0.2
v 0.8 0 -0.2
v 0.8 0.1 -0.2
v -1 0 -0.3
v -1 0.1 -0.3
v -0.9 0 -0.3
v -0.9 0.1 -0.3
v -0.5 0.1 -0.3
v -0.5 0.2 -0.3
v -0.4 0.1 -0.3
v -0.3 0.1 -0.3
v -0.3 0.2 -0.3
v 1.19209e-007 0 -0.3
v 1.19209e-007 0.2 -0.3
v 0.2 0 -0.3
v 0.2 0.2 -0.3
v -0.9 0 -0.4
v -0.9 0.1 -0.4
v -0.8 0 -0.4
v -0.8 0.1 -0.4
v -0.8 0 -0.5
v -0.8 0.1 -0.5
v -0.7 0 -0.5
v -0.7 0.1 -0.5
v -0.7 0 -0.6
v -0.7 0.1 -0.6
v -0.6 0 -0.6
v -0.6 0.1 -0.6
v -0.6 0 -0.7
v -0.6 0.1 -0.7
v -0.5 0 -0.7
v -0.5 0.1 -0.7
v -0.5 0 -0.8
v -0.5 0.1 -0.8
v -0.4 0 -0.8
v -0.4 0.1 -0.8
v -0.4 0 -0.9
v -0.4 0.1 -0.9
v -0.3 0 -0.9
v -0.3 0.1 -0.9
v -0.4 0 0.9
v -0.3 0 0.9
v -0.5 0 0.8
v -0.4 0 0.8
v -0.6 0 0.7
v -0.5 0 0.7
v -0.4 0 0.7
v -0.7 0 0.6
v -0.6 0 0.6
v -0.5 0 0.6
v -0.8 0 0.5
v -0.7 0 0.5
v -0.6 0 0.5
v -0.9 0 0.4
v -0.8 0 0.4
v -0.7 0 0.4
v -1 0 0.3
v -0.9 0 0.3
v -0.8 0 0.3
v -0.3 0 0.3
v 0.8 0 0.3
v -1.1 0 0.2
v -1 0 0.2
v -0.9 0 0.2
v -0.4 0 0.2
v 0.7 0 0.2
v -1.2 0 0.1
v -1.1 0 0.1
v -1 0 0.1
v -1.2 0 -0.1
v -1.1 0 -0.1
v -1 0 -0.1
v -0.4 0 -0.1
v 0.7 0 -0.1
v -1.1 0 -0.2
v -1 0 -0.2
v -0.9 0 -0.2
v -0.3 0 -0.2
v 1.19209e-007 0 -0.2
v 0.2 0 -0.2
v 0.8 0 -0.2
v -1 0 -0.3
v -0.9 0 -0.3
v -0.8 0 -0.3
v 1.19209e-007 0 -0.3
v 0.2 0 -0.3
v -0.9 0 -0.4
v -0.8 0 -0.4
v -0.7 0 -0.4
v -0.8 0 -0.5
v -0.7 0 -0.5
v -0.6 0 -0.5
v -0.7 0 -0.6
v -0.6 0 -0.6
v -0.5 0 -0.6
v -0.6 0 -0.7
v -0.5 0 -0.7
v -0.4 0 -0.7
v -0.5 0 -0.8
v -0.4 0 -0.8
v -0.4 0 -0.9
v -0.3 0 -0.9
v -0.4 0.1 0.9
v -0.3 0.1 0.9
v -0.5 0.1 0.8
v -0.4 0.1 0.8
v -0.6 0.1 0.7
v -0.5 0.1 0.7
v -0.4 0.1 0.7
v -0.7 0.1 0.6
v -0.6 0.1 0.6
v -0.5 0.1 0.6
v -0.8 0.1 0.5
v -0.7 0.1 0.5
v -0.6 0.1 0.5
v -0.9 0.1 0.4
v -0.8 0.1 0.4
v -0.7 0.1 0.4
v -1 0.1 0.3
v -0.9 0.1 0.3
v -0.8 0.1 0.3
v -0.3 0.1 0.3
v 0.8 0.1 0.3
v -1.1 0.1 0.2
v -1 0.1 0.2
v -0.9 0.1 0.2
v -0.4 0.1 0.2
v 0.7 0.1 0.2
v -1.2 0.1 0.1
v -1.1 0.1 0.1
v -1 0.1 0.1
v -0.3 0.1 0.1
v 1.19209e-007 0.1 0.1
v -0.3 0.1 0
v 1.19209e-007 0.1 0
v -1.2 0.1 -0.1
v -1.1 0.1 -0.1
v -1 0.1 -0.1
v -0.5 0.1 -0.1
v -0.3 0.1 -0.1
v 1.19209e-007 0.1 -0.1
v 0.2 0.1 -0.1
v 0.7 0.1 -0.1
v -1.1 0.1 -0.2
v -1 0.1 -0.2
v -0.9 0.1 -0.2
v -0.3 0.1 -0.2
v 1.19209e-007 0.1 -0.2
v 0.2 0.1 -0.2
v 0.8 0.1 -0.2
v -1 0.1 -0.3
v -0.9 0.1 -0.3
v -0.8 0.1 -0.3
v -0.5 0.1 -0.3
v -0.4 0.1 -0.3
v -0.3 0.1 -0.3
v -0.9 0.1 -0.4
v -0.8 0.1 -0.4
v -0.7 0.1 -0.4
v -0.8 0.1 -0.5
v -0.7 0.1 -0.5
v -0.6 0.1 -0.5
v -0.7 0.1 -0.6
v -0.6 0.1 -0.6
v -0.5 0.1 -0.6
v -0.6 0.1 -0.7
v -0.5 0.1 -0.7
v -0.4 0.1 -0.7
v -0.5 0.1 -0.8
v -0.4 0.1 -0.8
v -0.4 0.1 -0.9
v -0.3 0.1 -0.9
v -0.3 0.2 0.1
v 1.19209e-007 0.2 0.1
v -0.3 0.2 0
v 1.19209e-007 0.2 0
v -0.5 0.2 -0.1
v -0.3 0.2 -0.1
v 1.19209e-007 0.2 -0.1
v 0.2 0.2 -0.1
v -0.5 0.2 -0.3
v -0.3 0.2 -0.3
v 1.19209e-007 0.2 -0.3
v 0.2 0.2 -0.3

# faces
f 3/2/1 2/2/1 1/2/1
f 4/2/1 2/2/1 3/2/1
f 9/2/1 6/2/1 5/2/1
f 10/2/1 6/2/1 9/2/1
f 11/2/1 8/2/1 7/2/1
f 12/2/1 8/2/1 11/2/1
f 17/2/1 14/2/1 13/2/1
f 18/2/1 14/2/1 17/2/1
f 19/2/1 16/2/1 15/2/1
f 20/2/1 16/2/1 19/2/1
f 25/2/1 22/2/1 21/2/1
f 26/2/1 22/2/1 25/2/1
f 27/2/1 24/2/1 23/2/1
f 28/2/1 24/2/1 27/2/1
f 33/2/1 30/2/1 29/2/1
f 34/2/1 30/2/1 33/2/1
f 35/2/1 32/2/1 31/2/1
f 36/2/1 32/2/1 35/2/1
f 41/2/1 38/2/1 37/2/1
f 42/2/1 38/2/1 41/2/1
f 43/2/1 40/2/1 39/2/1
f 44/2/1 40/2/1 43/2/1
f 49/2/1 46/2/1 45/2/1
f 50/2/1 46/2/1 49/2/1
f 51/2/1 48/2/1 47/2/1
f 52/2/1 48/2/1 51/2/1
f 57/2/1 54/2/1 53/2/1
f 58/2/1 54/2/1 57/2/1
f 61/2/1 56/2/1 55/2/1
f 62/2/1 56/2/1 61/2/1
f 63/3/1 60/3/1 59/3/1
f 64/3/1 60/3/1 63/3/1
f 69/2/1 66/2/1 65/2/1
f 70/2/1 66/2/1 69/2/1
f 71/2/1 68/2/1 67/2/1
f 72/2/1 68/2/1 71/2/1
f 75/3/1 74/3/1 73/3/1
f 76/3/1 74/3/1 75/3/1
f 80/3/1 78/3/1 77/3/1
f 81/3/1 80/3/1 79/3/1
f 82/3/1 78/3/1 80/3/1
f 82/3/1 80/3/1 81/3/1
f 83/2/2 84/2/2 87/2/2
f 87/2/2 84/2/2 88/2/2
f 85/2/2 86/2/2 90/2/2
f 90/2/2 86/2/2 91/2/2
f 91/2/2 86/2/2 92/2/2
f 89/3/2 90/3/2 93/3/2
f 90/3/2 91/3/2 93/3/2
f 93/3/2 91/3/2 94/3/2
f 95/3/2 96/3/2 97/3/2
f 97/3/2 96/3/2 98/3/2
f 99/3/2 100/3/2 102/3/2
f 101/3/2 102/3/2 103/3/2
f 102/3/2 100/3/2 104/3/2
f 103/3/2 102/3/2 104/3/2
f 105/2/2 106/2/2 107/2/2
f 107/2/2 106/2/2 108/2/2
f 111/2/3 110/2/3 109/2/3
f 112/2/3 110/2/3 111/2/3
f 115/2/3 114/2/3 113/2/3
f 116/2/3 114/2/3 115/2/3
f 119/2/3 118/2/3 117/2/3
f 120/2/3 118/2/3 119/2/3
f 123/2/3 122/2/3 121/2/3
f 124/2/3 122/2/3 123/2/3
f 127/2/3 126/2/3 125/2/3
f 128/2/3 126/2/3 127/2/3
f 131/2/3 130/2/3 129/2/3
f 132/2/3 130/2/3 131/2/3
f 135/2/3 134/2/3 133/2/3
f 136/2/3 134/2/3 135/2/3
f 139/2/3 138/2/3 137/2/3
f 140/2/3 138/2/3 139/2/3
f 143/2/3 142/2/3 141/2/3
f 144/2/3 142/2/3 143/2/3
f 147/2/3 146/2/3 145/2/3
f 148/2/3 146/2/3 147/2/3
f 151/3/3 150/3/3 149/3/3
f 152/3/3 150/3/3 151/3/3
f 155/3/3 154/3/3 153/3/3
f 156/3/3 154/3/3 155/3/3
f 159/3/3 158/3/3 157/3/3
f 160/3/3 158/3/3 159/3/3
f 161/3/4 162/3/4 163/3/4
f 163/3/4 162/3/4 164/3/4
f 165/2/4 166/2/4 167/2/4
f 167/2/4 166/2/4 168/2/4
f 169/2/4 170/2/4 171/2/4
f 171/2/4 170/2/4 172/2/4
f 173/2/4 174/2/4 175/2/4
f 175/2/4 174/2/4 176/2/4
f 177/2/4 178/2/4 179/2/4
f 179/2/4 178/2/4 180/2/4
f 181/2/4 182/2/4 183/2/4
f 183/2/4 182/2/4 184/2/4
f 185/3/4 186/3/4 187/3/4
f 187/3/4 186/3/4 188/3/4
f 188/3/4 186/3/4 189/3/4
f 190/3/4 191/3/4 192/3/4
f 192/3/4 191/3/4 193/3/4
f 194/2/4 195/2/4 196/2/4
f 196/2/4 195/2/4 197/2/4
f 198/2/4 199/2/4 200/2/4
f 200/2/4 199/2/4 201/2/4
f 202/2/4 203/2/4 204/2/4
f 204/2/4 203/2/4 205/2/4
f 206/2/4 207/2/4 208/2/4
f 208/2/4 207/2/4 209/2/4
f 210/2/4 211/2/4 212/2/4
f 212/2/4 211/2/4 213/2/4
f 214/2/4 215/2/4 216/2/4
f 216/2/4 215/2/4 217/2/4
f 221/2/5 219/2/5 218/2/5
f 223/2/5 221/2/5 220/2/5
f 224/2/5 219/2/5 221/2/5
f 224/2/5 221/2/5 223/2/5
f 226/2/5 223/2/5 222/2/5
f 227/1/5 224/1/5 223/1/5
f 227/2/5 223/2/5 226/2/5
f 229/2/5 226/2/5 225/2/5
f 230/1/5 227/1/5 226/1/5
f 230/2/5 226/2/5 229/2/5
f 232/2/5 229/2/5 228/2/5
f 233/1/5 230/1/5 229/1/5
f 233/2/5 229/2/5 232/2/5
f 235/2/5 232/2/5 231/2/5
f 236/1/5 233/1/5 232/1/5
f 236/2/5 232/2/5 235/2/5
f 237/2/5 219/2/5 224/2/5
f 240/2/5 235/2/5 234/2/5
f 241/1/5 236/1/5 235/1/5
f 241/2/5 235/2/5 240/2/5
f 242/1/5 233/1/5 236/1/5
f 242/1/5 236/1/5 241/1/5
f 242/1/5 224/1/5 227/1/5
f 242/1/5 227/1/5 230/1/5
f 242/2/5 237/2/5 224/2/5
f 242/1/5 230/1/5 233/1/5
f 242/2/5 238/2/5 237/2/5
f 243/2/5 238/2/5 242/2/5
f 245/2/5 240/2/5 239/2/5
f 246/1/5 241/1/5 240/1/5
f 246/1/5 242/1/5 241/1/5
f 246/2/5 240/2/5 245/2/5
f 246/1/5 243/1/5 242/1/5
f 247/2/5 245/2/5 244/2/5
f 248/1/5 246/1/5 245/1/5
f 248/2/5 245/2/5 247/2/5
f 249/1/5 243/1/5 246/1/5
f 249/1/5 246/1/5 248/1/5
f 250/1/5 243/1/5 249/1/5
f 251/2/5 238/2/5 243/2/5
f 251/1/5 243/1/5 250/1/5
f 252/2/5 249/2/5 248/2/5
f 253/1/5 250/1/5 249/1/5
f 253/2/5 249/2/5 252/2/5
f 254/1/5 250/1/5 253/1/5
f 255/2/5 251/2/5 250/2/5
f 256/2/5 251/2/5 255/2/5
f 257/2/5 251/2/5 256/2/5
f 258/2/5 238/2/5 251/2/5
f 258/2/5 251/2/5 257/2/5
f 259/2/5 254/2/5 253/2/5
f 260/1/5 250/1/5 254/1/5
f 260/2/5 254/2/5 259/2/5
f 261/1/5 250/1/5 260/1/5
f 262/3/5 257/3/5 256/3/5
f 263/3/5 257/3/5 262/3/5
f 264/2/5 261/2/5 260/2/5
f 265/1/5 250/1/5 261/1/5
f 265/2/5 261/2/5 264/2/5
f 266/1/5 250/1/5 265/1/5
f 267/2/5 266/2/5 265/2/5
f 268/1/5 250/1/5 266/1/5
f 268/2/5 266/2/5 267/2/5
f 269/1/5 250/1/5 268/1/5
f 270/2/5 269/2/5 268/2/5
f 271/1/5 250/1/5 269/1/5
f 271/2/5 269/2/5 270/2/5
f 272/1/5 250/1/5 271/1/5
f 273/2/5 272/2/5 271/2/5
f 274/1/5 250/1/5 272/1/5
f 274/2/5 272/2/5 273/2/5
f 275/2/5 255/2/5 250/2/5
f 275/1/5 250/1/5 274/1/5
f 276/2/5 275/2/5 274/2/5
f 277/2/5 255/2/5 275/2/5
f 277/2/5 275/2/5 276/2/5
f 278/2/5 255/2/5 277/2/5
f 279/2/5 255/2/5 278/2/5
f 280/2/6 281/2/6 283/2/6
f 282/2/6 283/2/6 285/2/6
f 283/2/6 281/2/6 286/2/6
f 285/2/6 283/2/6 286/2/6
f 284/2/6 285/2/6 288/2/6
f 285/1/6 286/1/6 289/1/6
f 288/2/6 285/2/6 289/2/6
f 287/2/6 288/2/6 291/2/6
f 288/1/6 289/1/6 292/1/6
f 291/2/6 288/2/6 292/2/6
f 290/2/6 291/2/6 294/2/6
f 291/1/6 292/1/6 295/1/6
f 294/2/6 291/2/6 295/2/6
f 293/2/6 294/2/6 297/2/6
f 294/1/6 295/1/6 298/1/6
f 297/2/6 294/2/6 298/2/6
f 286/2/6 281/2/6 299/2/6
f 296/2/6 297/2/6 302/2/6
f 297/1/6 298/1/6 303/1/6
f 302/2/6 297/2/6 303/2/6
f 298/1/6 295/1/6 304/1/6
f 303/1/6 298/1/6 304/1/6
f 289/1/6 286/1/6 304/1/6
f 292/1/6 289/1/6 304/1/6
f 286/2/6 299/2/6 304/2/6
f 295/1/6 292/1/6 304/1/6
f 299/2/6 300/2/6 304/2/6
f 304/2/6 300/2/6 305/2/6
f 301/2/6 302/2/6 307/2/6
f 302/1/6 303/1/6 308/1/6
f 303/1/6 304/1/6 308/1/6
f 307/2/6 302/2/6 308/2/6
f 304/1/6 305/1/6 308/1/6
f 308/1/6 305/1/6 309/1/6
f 309/1/6 305/1/6 310/1/6
f 307/1/6 308/1/6 311/1/6
f 308/1/6 309/1/6 311/1/6
f 310/1/6 305/1/6 312/1/6
f 306/2/6 307/2/6 313/2/6
f 311/1/6 312/1/6 314/1/6
f 313/2/6 307/2/6 314/2/6
f 307/1/6 311/1/6 314/1/6
f 314/1/6 312/1/6 315/1/6
f 315/1/6 312/1/6 316/1/6
f 316/1/6 312/1/6 317/1/6
f 312/1/6 305/1/6 318/1/6
f 317/1/6 312/1/6 318/1/6
f 318/1/6 305/1/6 319/1/6
f 305/2/6 300/2/6 320/2/6
f 319/1/6 305/1/6 320/1/6
f 314/2/6 315/2/6 321/2/6
f 315/1/6 316/1/6 322/1/6
f 321/2/6 315/2/6 322/2/6
f 322/1/6 316/1/6 323/1/6
f 317/2/6 318/2/6 324/2/6
f 324/2/6 318/2/6 325/2/6
f 319/2/6 320/2/6 326/2/6
f 320/2/6 300/2/6 327/2/6
f 326/2/6 320/2/6 327/2/6
f 322/2/6 323/2/6 328/2/6
f 323/1/6 316/1/6 329/1/6
f 328/2/6 323/2/6 329/2/6
f 329/1/6 316/1/6 330/1/6
f 330/1/6 316/1/6 331/1/6
f 329/2/6 330/2/6 334/2/6
f 331/1/6 332/1/6 335/1/6
f 334/2/6 330/2/6 335/2/6
f 330/1/6 331/1/6 335/1/6
f 335/1/6 332/1/6 336/1/6
f 335/2/6 336/2/6 337/2/6
f 336/1/6 332/1/6 338/1/6
f 337/2/6 336/2/6 338/2/6
f 338/1/6 332/1/6 339/1/6
f 338/2/6 339/2/6 340/2/6
f 339/1/6 332/1/6 341/1/6
f 340/2/6 339/2/6 341/2/6
f 341/1/6 332/1/6 342/1/6
f 341/2/6 342/2/6 343/2/6
f 342/1/6 332/1/6 344/1/6
f 343/2/6 342/2/6 344/2/6
f 332/2/6 333/2/6 345/2/6
f 344/1/6 332/1/6 345/1/6
f 344/2/6 345/2/6 346/2/6
f 345/2/6 333/2/6 347/2/6
f 346/2/6 345/2/6 347/2/6
f 347/2/6 333/2/6 348/2/6
f 348/2/6 333/2/6 349/2/6
f 350/3/6 351/3/6 352/3/6
f 352/3/6 351/3/6 353/3/6
f 354/3/6 355/3/6 358/3/6
f 358/3/6 355/3/6 359/3/6
f 356/3/6 357/3/6 360/3/6
f 360/3/6 357/3/6 361/3/6
