# MagicaVoxel @ Ephtracy

# group
o 

# material
mtllib YAJIRUSHIIIIIIII.mtl
usemtl palette

# normals
vn -1 0 0
vn 1 0 0
vn 0 0 1
vn 0 0 -1
vn 0 -1 0
vn 0 1 0

# texcoords
vt 0.115234 0.5
vt 0.154297 0.5
vt 0.185547 0.5
vt 0.841797 0.5
vt 0.994141 0.5

# verts
v -1.2 0 0.1
v -1.2 0 -0.1
v -1.2 0.1 0.1
v -1.2 0.1 -0.1
v -1.1 0 0.2
v -1.1 0 0.1
v -1.1 0 -0.1
v -1.1 0 -0.2
v -1.1 0.1 0.2
v -1.1 0.1 0.1
v -1.1 0.1 -0.1
v -1.1 0.1 -0.2
v -1 0 0.3
v -1 0 0.2
v -1 0 -0.2
v -1 0 -0.3
v -1 0.1 0.3
v -1 0.1 0.2
v -1 0.1 -0.2
v -1 0.1 -0.3
v -0.9 0 0.4
v -0.9 0 0.3
v -0.9 0 -0.3
v -0.9 0 -0.4
v -0.9 0.1 0.4
v -0.9 0.1 0.3
v -0.9 0.1 -0.3
v -0.9 0.1 -0.4
v -0.8 0 0.5
v -0.8 0 0.4
v -0.8 0 -0.4
v -0.8 0 -0.5
v -0.8 0.1 0.5
v -0.8 0.1 0.4
v -0.8 0.1 -0.4
v -0.8 0.1 -0.5
v -0.7 0 0.6
v -0.7 0 0.5
v -0.7 0 -0.5
v -0.7 0 -0.6
v -0.7 0.1 0.6
v -0.7 0.1 0.5
v -0.7 0.1 -0.5
v -0.7 0.1 -0.6
v -0.6 0 0.7
v -0.6 0 0.6
v -0.6 0 -0.6
v -0.6 0 -0.7
v -0.6 0.1 0.7
v -0.6 0.1 0.6
v -0.6 0.1 -0.6
v -0.6 0.1 -0.7
v -0.5 0 0.8
v -0.5 0 0.7
v -0.5 0 -0.7
v -0.5 0 -0.8
v -0.5 0.1 0.8
v -0.5 0.1 0.7
v -0.5 0.1 -0.1
v -0.5 0.1 -0.3
v -0.5 0.1 -0.7
v -0.5 0.1 -0.8
v -0.5 0.2 -0.1
v -0.5 0.2 -0.3
v -0.4 0 0.9
v -0.4 0 0.8
v -0.4 0 -0.8
v -0.4 0 -0.9
v -0.4 0.1 0.9
v -0.4 0.1 0.8
v -0.4 0.1 0.1
v -0.4 0.1 0
v -0.4 0.1 -0.8
v -0.4 0.1 -0.9
v -0.4 0.2 0.1
v -0.4 0.2 0
v -0.3 0.1 0.2
v -0.3 0.1 0.1
v -0.3 0.2 0.2
v -0.3 0.2 0.1
v 1.19209e-007 0 -0.2
v 1.19209e-007 0 -0.3
v 1.19209e-007 0.1 0.1
v 1.19209e-007 0.1 0
v 1.19209e-007 0.1 -0.1
v 1.19209e-007 0.1 -0.2
v 1.19209e-007 0.2 0.1
v 1.19209e-007 0.2 0
v 1.19209e-007 0.2 -0.1
v 1.19209e-007 0.2 -0.3
v -0.3 0 0.9
v -0.3 0 0.3
v -0.3 0 -0.2
v -0.3 0 -0.9
v -0.3 0.1 0.9
v -0.3 0.1 0.3
v -0.3 0.1 0.1
v -0.3 0.1 0
v -0.3 0.1 -0.1
v -0.3 0.1 -0.2
v -0.3 0.1 -0.3
v -0.3 0.1 -0.9
v -0.3 0.2 0.1
v -0.3 0.2 0
v -0.3 0.2 -0.1
v -0.3 0.2 -0.3
v 1.19209e-007 0.1 0.2
v 1.19209e-007 0.1 0.1
v 1.19209e-007 0.2 0.2
v 1.19209e-007 0.2 0.1
v 0.1 0.1 0.1
v 0.1 0.1 0
v 0.1 0.2 0.1
v 0.1 0.2 0
v 0.2 0 -0.2
v 0.2 0 -0.3
v 0.2 0.1 -0.1
v 0.2 0.1 -0.2
v 0.2 0.2 -0.1
v 0.2 0.2 -0.3
v 0.8 0 0.3
v 0.8 0 -0.2
v 0.8 0.1 0.3
v 0.8 0.1 -0.2
v -0.4 0 0.9
v -0.4 0.1 0.9
v -0.3 0 0.9
v -0.3 0.1 0.9
v -0.5 0 0.8
v -0.5 0.1 0.8
v -0.4 0 0.8
v -0.4 0.1 0.8
v -0.6 0 0.7
v -0.6 0.1 0.7
v -0.5 0 0.7
v -0.5 0.1 0.7
v -0.7 0 0.6
v -0.7 0.1 0.6
v -0.6 0 0.6
v -0.6 0.1 0.6
v -0.8 0 0.5
v -0.8 0.1 0.5
v -0.7 0 0.5
v -0.7 0.1 0.5
v -0.9 0 0.4
v -0.9 0.1 0.4
v -0.8 0 0.4
v -0.8 0.1 0.4
v -1 0 0.3
v -1 0.1 0.3
v -0.9 0 0.3
v -0.9 0.1 0.3
v -0.3 0 0.3
v -0.3 0.1 0.3
v 0.8 0 0.3
v 0.8 0.1 0.3
v -1.1 0 0.2
v -1.1 0.1 0.2
v -1 0 0.2
v -1 0.1 0.2
v -0.3 0.1 0.2
v -0.3 0.2 0.2
v 1.19209e-007 0.1 0.2
v 1.19209e-007 0.2 0.2
v -1.2 0 0.1
v -1.2 0.1 0.1
v -1.1 0 0.1
v -1.1 0.1 0.1
v -0.4 0.1 0.1
v -0.4 0.2 0.1
v -0.3 0.1 0.1
v -0.3 0.2 0.1
v 1.19209e-007 0.1 0.1
v 1.19209e-007 0.2 0.1
v 0.1 0.1 0.1
v 0.1 0.2 0.1
v -0.5 0.1 -0.1
v -0.5 0.2 -0.1
v -0.3 0.1 -0.1
v -0.3 0.2 -0.1
v 1.19209e-007 0.1 -0.1
v 1.19209e-007 0.2 -0.1
v 0.2 0.1 -0.1
v 0.2 0.2 -0.1
v -0.3 0.1 0.1
v -0.3 0.2 0.1
v 1.19209e-007 0.1 0.1
v 1.19209e-007 0.2 0.1
v -0.4 0.1 0
v -0.4 0.2 0
v -0.3 0.1 0
v -0.3 0.2 0
v 1.19209e-007 0.1 0
v 1.19209e-007 0.2 0
v 0.1 0.1 0
v 0.1 0.2 0
v -1.2 0 -0.1
v -1.2 0.1 -0.1
v -1.1 0 -0.1
v -1.1 0.1 -0.1
v -1.1 0 -0.2
v -1.1 0.1 -0.2
v -1 0 -0.2
v -1 0.1 -0.2
v -0.3 0 -0.2
v -0.3 0.1 -0.2
v 1.19209e-007 0 -0.2
v 1.19209e-007 0.1 -0.2
v 0.2 0 -0.2
v 0.2 0.1 -0.2
v 0.8 0 -0.2
v 0.8 0.1 -0.2
v -1 0 -0.3
v -1 0.1 -0.3
v -0.9 0 -0.3
v -0.9 0.1 -0.3
v -0.5 0.1 -0.3
v -0.5 0.2 -0.3
v -0.4 0.1 -0.3
v -0.3 0.1 -0.3
v -0.3 0.2 -0.3
v 1.19209e-007 0 -0.3
v 1.19209e-007 0.2 -0.3
v 0.2 0 -0.3
v 0.2 0.2 -0.3
v -0.9 0 -0.4
v -0.9 0.1 -0.4
v -0.8 0 -0.4
v -0.8 0.1 -0.4
v -0.8 0 -0.5
v -0.8 0.1 -0.5
v -0.7 0 -0.5
v -0.7 0.1 -0.5
v -0.7 0 -0.6
v -0.7 0.1 -0.6
v -0.6 0 -0.6
v -0.6 0.1 -0.6
v -0.6 0 -0.7
v -0.6 0.1 -0.7
v -0.5 0 -0.7
v -0.5 0.1 -0.7
v -0.5 0 -0.8
v -0.5 0.1 -0.8
v -0.4 0 -0.8
v -0.4 0.1 -0.8
v -0.4 0 -0.9
v -0.4 0.1 -0.9
v -0.3 0 -0.9
v -0.3 0.1 -0.9
v -0.4 0 0.9
v -0.3 0 0.9
v -0.5 0 0.8
v -0.4 0 0.8
v -0.6 0 0.7
v -0.5 0 0.7
v -0.4 0 0.7
v -0.7 0 0.6
v -0.6 0 0.6
v -0.5 0 0.6
v -0.8 0 0.5
v -0.7 0 0.5
v -0.6 0 0.5
v -0.9 0 0.4
v -0.8 0 0.4
v -0.7 0 0.4
v -1 0 0.3
v -0.9 0 0.3
v -0.8 0 0.3
v -0.3 0 0.3
v 0.8 0 0.3
v -1.1 0 0.2
v -1 0 0.2
v -0.9 0 0.2
v -0.4 0 0.2
v -0.3 0 0.2
v 1.19209e-007 0 0.2
v 0.7 0 0.2
v -1.2 0 0.1
v -1.1 0 0.1
v -1 0 0.1
v -0.4 0 0.1
v -0.3 0 0.1
v 1.19209e-007 0 0.1
v 0.1 0 0.1
v -0.4 0 0
v -0.3 0 0
v 1.19209e-007 0 0
v 0.1 0 0
v -1.2 0 -0.1
v -1.1 0 -0.1
v -1 0 -0.1
v -0.5 0 -0.1
v -0.4 0 -0.1
v -0.3 0 -0.1
v 1.19209e-007 0 -0.1
v 0.2 0 -0.1
v 0.7 0 -0.1
v -1.1 0 -0.2
v -1 0 -0.2
v -0.9 0 -0.2
v -0.4 0 -0.2
v -0.3 0 -0.2
v 1.19209e-007 0 -0.2
v 0.2 0 -0.2
v 0.8 0 -0.2
v -1 0 -0.3
v -0.9 0 -0.3
v -0.8 0 -0.3
v -0.5 0 -0.3
v -0.4 0 -0.3
v 1.19209e-007 0 -0.3
v 0.2 0 -0.3
v -0.9 0 -0.4
v -0.8 0 -0.4
v -0.7 0 -0.4
v -0.8 0 -0.5
v -0.7 0 -0.5
v -0.6 0 -0.5
v -0.7 0 -0.6
v -0.6 0 -0.6
v -0.5 0 -0.6
v -0.6 0 -0.7
v -0.5 0 -0.7
v -0.4 0 -0.7
v -0.5 0 -0.8
v -0.4 0 -0.8
v -0.4 0 -0.9
v -0.3 0 -0.9
v -0.4 0.1 0.9
v -0.3 0.1 0.9
v -0.5 0.1 0.8
v -0.4 0.1 0.8
v -0.6 0.1 0.7
v -0.5 0.1 0.7
v -0.4 0.1 0.7
v -0.7 0.1 0.6
v -0.6 0.1 0.6
v -0.5 0.1 0.6
v -0.8 0.1 0.5
v -0.7 0.1 0.5
v -0.6 0.1 0.5
v -0.9 0.1 0.4
v -0.8 0.1 0.4
v -0.7 0.1 0.4
v -1 0.1 0.3
v -0.9 0.1 0.3
v -0.8 0.1 0.3
v -0.3 0.1 0.3
v 0.8 0.1 0.3
v -1.1 0.1 0.2
v -1 0.1 0.2
v -0.9 0.1 0.2
v -0.4 0.1 0.2
v -0.3 0.1 0.2
v 1.19209e-007 0.1 0.2
v 0.7 0.1 0.2
v -1.2 0.1 0.1
v -1.1 0.1 0.1
v -1 0.1 0.1
v -0.4 0.1 0.1
v -0.3 0.1 0.1
v 1.19209e-007 0.1 0.1
v 0.1 0.1 0.1
v -0.4 0.1 0
v -0.3 0.1 0
v 1.19209e-007 0.1 0
v 0.1 0.1 0
v -1.2 0.1 -0.1
v -1.1 0.1 -0.1
v -1 0.1 -0.1
v -0.5 0.1 -0.1
v -0.3 0.1 -0.1
v 1.19209e-007 0.1 -0.1
v 0.2 0.1 -0.1
v 0.7 0.1 -0.1
v -1.1 0.1 -0.2
v -1 0.1 -0.2
v -0.9 0.1 -0.2
v -0.3 0.1 -0.2
v 1.19209e-007 0.1 -0.2
v 0.2 0.1 -0.2
v 0.8 0.1 -0.2
v -1 0.1 -0.3
v -0.9 0.1 -0.3
v -0.8 0.1 -0.3
v -0.5 0.1 -0.3
v -0.4 0.1 -0.3
v -0.3 0.1 -0.3
v -0.9 0.1 -0.4
v -0.8 0.1 -0.4
v -0.7 0.1 -0.4
v -0.8 0.1 -0.5
v -0.7 0.1 -0.5
v -0.6 0.1 -0.5
v -0.7 0.1 -0.6
v -0.6 0.1 -0.6
v -0.5 0.1 -0.6
v -0.6 0.1 -0.7
v -0.5 0.1 -0.7
v -0.4 0.1 -0.7
v -0.5 0.1 -0.8
v -0.4 0.1 -0.8
v -0.4 0.1 -0.9
v -0.3 0.1 -0.9
v -0.3 0.2 0.2
v 1.19209e-007 0.2 0.2
v -0.4 0.2 0.1
v -0.3 0.2 0.1
v 1.19209e-007 0.2 0.1
v 0.1 0.2 0.1
v -0.4 0.2 0
v -0.3 0.2 0
v 1.19209e-007 0.2 0
v 0.1 0.2 0
v -0.5 0.2 -0.1
v -0.3 0.2 -0.1
v 1.19209e-007 0.2 -0.1
v 0.2 0.2 -0.1
v -0.5 0.2 -0.3
v -0.3 0.2 -0.3
v 1.19209e-007 0.2 -0.3
v 0.2 0.2 -0.3

# faces
f 3/2/1 2/2/1 1/2/1
f 4/2/1 2/2/1 3/2/1
f 9/2/1 6/2/1 5/2/1
f 10/2/1 6/2/1 9/2/1
f 11/2/1 8/2/1 7/2/1
f 12/2/1 8/2/1 11/2/1
f 17/2/1 14/2/1 13/2/1
f 18/2/1 14/2/1 17/2/1
f 19/2/1 16/2/1 15/2/1
f 20/2/1 16/2/1 19/2/1
f 25/2/1 22/2/1 21/2/1
f 26/2/1 22/2/1 25/2/1
f 27/2/1 24/2/1 23/2/1
f 28/2/1 24/2/1 27/2/1
f 33/2/1 30/2/1 29/2/1
f 34/2/1 30/2/1 33/2/1
f 35/2/1 32/2/1 31/2/1
f 36/2/1 32/2/1 35/2/1
f 41/2/1 38/2/1 37/2/1
f 42/2/1 38/2/1 41/2/1
f 43/2/1 40/2/1 39/2/1
f 44/2/1 40/2/1 43/2/1
f 49/2/1 46/2/1 45/2/1
f 50/2/1 46/2/1 49/2/1
f 51/2/1 48/2/1 47/2/1
f 52/2/1 48/2/1 51/2/1
f 57/2/1 54/2/1 53/2/1
f 58/2/1 54/2/1 57/2/1
f 61/2/1 56/2/1 55/2/1
f 62/2/1 56/2/1 61/2/1
f 63/5/1 60/5/1 59/5/1
f 64/5/1 60/5/1 63/5/1
f 69/2/1 66/2/1 65/2/1
f 70/2/1 66/2/1 69/2/1
f 73/2/1 68/2/1 67/2/1
f 74/2/1 68/2/1 73/2/1
f 75/5/1 72/5/1 71/5/1
f 76/5/1 72/5/1 75/5/1
f 79/5/1 78/5/1 77/5/1
f 80/5/1 78/5/1 79/5/1
f 86/5/1 82/5/1 81/5/1
f 87/5/1 84/5/1 83/5/1
f 88/5/1 84/5/1 87/5/1
f 89/5/1 86/5/1 85/5/1
f 90/5/1 82/5/1 86/5/1
f 90/5/1 86/5/1 89/5/1
f 91/2/2 92/2/2 95/2/2
f 95/2/2 92/2/2 96/2/2
f 93/2/2 94/2/2 100/2/2
f 100/2/2 94/2/2 101/2/2
f 101/2/2 94/2/2 102/2/2
f 97/5/2 98/5/2 103/5/2
f 103/5/2 98/5/2 104/5/2
f 100/5/2 101/5/2 105/5/2
f 99/5/2 100/5/2 105/5/2
f 105/5/2 101/5/2 106/5/2
f 107/5/2 108/5/2 109/5/2
f 109/5/2 108/5/2 110/5/2
f 111/5/2 112/5/2 113/5/2
f 113/5/2 112/5/2 114/5/2
f 115/5/2 116/5/2 118/5/2
f 117/5/2 118/5/2 119/5/2
f 118/5/2 116/5/2 120/5/2
f 119/5/2 118/5/2 120/5/2
f 121/2/2 122/2/2 123/2/2
f 123/2/2 122/2/2 124/2/2
f 127/2/3 126/2/3 125/2/3
f 128/2/3 126/2/3 127/2/3
f 131/2/3 130/2/3 129/2/3
f 132/2/3 130/2/3 131/2/3
f 135/2/3 134/2/3 133/2/3
f 136/2/3 134/2/3 135/2/3
f 139/2/3 138/2/3 137/2/3
f 140/2/3 138/2/3 139/2/3
f 143/2/3 142/2/3 141/2/3
f 144/2/3 142/2/3 143/2/3
f 147/2/3 146/2/3 145/2/3
f 148/2/3 146/2/3 147/2/3
f 151/2/3 150/2/3 149/2/3
f 152/2/3 150/2/3 151/2/3
f 155/2/3 154/2/3 153/2/3
f 156/2/3 154/2/3 155/2/3
f 159/2/3 158/2/3 157/2/3
f 160/2/3 158/2/3 159/2/3
f 163/5/3 162/5/3 161/5/3
f 164/5/3 162/5/3 163/5/3
f 167/2/3 166/2/3 165/2/3
f 168/2/3 166/2/3 167/2/3
f 171/5/3 170/5/3 169/5/3
f 172/5/3 170/5/3 171/5/3
f 175/5/3 174/5/3 173/5/3
f 176/5/3 174/5/3 175/5/3
f 179/5/3 178/5/3 177/5/3
f 180/5/3 178/5/3 179/5/3
f 183/5/3 182/5/3 181/5/3
f 184/5/3 182/5/3 183/5/3
f 185/5/4 186/5/4 187/5/4
f 187/5/4 186/5/4 188/5/4
f 189/5/4 190/5/4 191/5/4
f 191/5/4 190/5/4 192/5/4
f 193/5/4 194/5/4 195/5/4
f 195/5/4 194/5/4 196/5/4
f 197/2/4 198/2/4 199/2/4
f 199/2/4 198/2/4 200/2/4
f 201/2/4 202/2/4 203/2/4
f 203/2/4 202/2/4 204/2/4
f 205/2/4 206/2/4 207/2/4
f 207/2/4 206/2/4 208/2/4
f 209/2/4 210/2/4 211/2/4
f 211/2/4 210/2/4 212/2/4
f 213/2/4 214/2/4 215/2/4
f 215/2/4 214/2/4 216/2/4
f 217/5/4 218/5/4 219/5/4
f 219/5/4 218/5/4 220/5/4
f 220/5/4 218/5/4 221/5/4
f 222/5/4 223/5/4 224/5/4
f 224/5/4 223/5/4 225/5/4
f 226/2/4 227/2/4 228/2/4
f 228/2/4 227/2/4 229/2/4
f 230/2/4 231/2/4 232/2/4
f 232/2/4 231/2/4 233/2/4
f 234/2/4 235/2/4 236/2/4
f 236/2/4 235/2/4 237/2/4
f 238/2/4 239/2/4 240/2/4
f 240/2/4 239/2/4 241/2/4
f 242/2/4 243/2/4 244/2/4
f 244/2/4 243/2/4 245/2/4
f 246/2/4 247/2/4 248/2/4
f 248/2/4 247/2/4 249/2/4
f 253/2/5 251/2/5 250/2/5
f 255/2/5 253/2/5 252/2/5
f 256/2/5 251/2/5 253/2/5
f 256/2/5 253/2/5 255/2/5
f 258/2/5 255/2/5 254/2/5
f 259/4/5 256/4/5 255/4/5
f 259/2/5 255/2/5 258/2/5
f 261/2/5 258/2/5 257/2/5
f 262/4/5 259/4/5 258/4/5
f 262/2/5 258/2/5 261/2/5
f 264/2/5 261/2/5 260/2/5
f 265/4/5 262/4/5 261/4/5
f 265/2/5 261/2/5 264/2/5
f 267/2/5 264/2/5 263/2/5
f 268/4/5 265/4/5 264/4/5
f 268/2/5 264/2/5 267/2/5
f 269/2/5 251/2/5 256/2/5
f 272/2/5 267/2/5 266/2/5
f 273/4/5 268/4/5 267/4/5
f 273/2/5 267/2/5 272/2/5
f 274/4/5 265/4/5 268/4/5
f 274/4/5 268/4/5 273/4/5
f 274/4/5 256/4/5 259/4/5
f 274/4/5 259/4/5 262/4/5
f 274/2/5 269/2/5 256/2/5
f 274/4/5 262/4/5 265/4/5
f 274/2/5 270/2/5 269/2/5
f 275/2/5 270/2/5 274/2/5
f 276/2/5 270/2/5 275/2/5
f 277/2/5 270/2/5 276/2/5
f 279/2/5 272/2/5 271/2/5
f 280/4/5 273/4/5 272/4/5
f 280/4/5 274/4/5 273/4/5
f 280/2/5 272/2/5 279/2/5
f 280/4/5 275/4/5 274/4/5
f 281/4/5 275/4/5 280/4/5
f 282/1/5 276/1/5 275/1/5
f 282/4/5 275/4/5 281/4/5
f 283/4/5 277/4/5 276/4/5
f 283/1/5 276/1/5 282/1/5
f 284/4/5 277/4/5 283/4/5
f 285/1/5 282/1/5 281/1/5
f 285/4/5 281/4/5 280/4/5
f 285/4/5 280/4/5 279/4/5
f 286/4/5 283/4/5 282/4/5
f 286/1/5 282/1/5 285/1/5
f 287/1/5 284/1/5 283/1/5
f 287/4/5 283/4/5 286/4/5
f 288/4/5 277/4/5 284/4/5
f 288/1/5 284/1/5 287/1/5
f 289/2/5 279/2/5 278/2/5
f 290/4/5 287/4/5 286/4/5
f 290/2/5 279/2/5 289/2/5
f 290/4/5 286/4/5 285/4/5
f 290/4/5 288/4/5 287/4/5
f 290/4/5 285/4/5 279/4/5
f 291/4/5 288/4/5 290/4/5
f 292/4/5 288/4/5 291/4/5
f 293/4/5 288/4/5 292/4/5
f 294/4/5 288/4/5 293/4/5
f 295/4/5 288/4/5 294/4/5
f 296/4/5 277/4/5 288/4/5
f 296/4/5 288/4/5 295/4/5
f 297/2/5 270/2/5 277/2/5
f 297/4/5 277/4/5 296/4/5
f 298/2/5 291/2/5 290/2/5
f 299/4/5 292/4/5 291/4/5
f 299/2/5 291/2/5 298/2/5
f 300/4/5 292/4/5 299/4/5
f 301/1/5 293/1/5 292/1/5
f 301/3/5 294/3/5 293/3/5
f 302/2/5 295/2/5 294/2/5
f 302/3/5 294/3/5 301/3/5
f 303/3/5 296/3/5 295/3/5
f 303/2/5 295/2/5 302/2/5
f 304/2/5 297/2/5 296/2/5
f 304/3/5 296/3/5 303/3/5
f 305/2/5 270/2/5 297/2/5
f 305/2/5 297/2/5 304/2/5
f 306/2/5 300/2/5 299/2/5
f 307/4/5 292/4/5 300/4/5
f 307/2/5 300/2/5 306/2/5
f 308/4/5 292/4/5 307/4/5
f 309/1/5 301/1/5 292/1/5
f 309/4/5 292/4/5 308/4/5
f 310/2/5 302/2/5 301/2/5
f 310/1/5 301/1/5 309/1/5
f 311/5/5 304/5/5 303/5/5
f 312/5/5 304/5/5 311/5/5
f 313/2/5 308/2/5 307/2/5
f 314/4/5 309/4/5 308/4/5
f 314/2/5 308/2/5 313/2/5
f 314/4/5 310/4/5 309/4/5
f 315/4/5 310/4/5 314/4/5
f 316/2/5 315/2/5 314/2/5
f 317/4/5 310/4/5 315/4/5
f 317/2/5 315/2/5 316/2/5
f 318/4/5 310/4/5 317/4/5
f 319/2/5 318/2/5 317/2/5
f 320/4/5 310/4/5 318/4/5
f 320/2/5 318/2/5 319/2/5
f 321/4/5 310/4/5 320/4/5
f 322/2/5 321/2/5 320/2/5
f 323/4/5 310/4/5 321/4/5
f 323/2/5 321/2/5 322/2/5
f 324/2/5 302/2/5 310/2/5
f 324/4/5 310/4/5 323/4/5
f 325/2/5 324/2/5 323/2/5
f 326/2/5 302/2/5 324/2/5
f 326/2/5 324/2/5 325/2/5
f 327/2/5 302/2/5 326/2/5
f 328/2/5 302/2/5 327/2/5
f 329/2/6 330/2/6 332/2/6
f 331/2/6 332/2/6 334/2/6
f 332/2/6 330/2/6 335/2/6
f 334/2/6 332/2/6 335/2/6
f 333/2/6 334/2/6 337/2/6
f 334/4/6 335/4/6 338/4/6
f 337/2/6 334/2/6 338/2/6
f 336/2/6 337/2/6 340/2/6
f 337/4/6 338/4/6 341/4/6
f 340/2/6 337/2/6 341/2/6
f 339/2/6 340/2/6 343/2/6
f 340/4/6 341/4/6 344/4/6
f 343/2/6 340/2/6 344/2/6
f 342/2/6 343/2/6 346/2/6
f 343/4/6 344/4/6 347/4/6
f 346/2/6 343/2/6 347/2/6
f 335/2/6 330/2/6 348/2/6
f 345/2/6 346/2/6 351/2/6
f 346/4/6 347/4/6 352/4/6
f 351/2/6 346/2/6 352/2/6
f 347/4/6 344/4/6 353/4/6
f 352/4/6 347/4/6 353/4/6
f 338/4/6 335/4/6 353/4/6
f 341/4/6 338/4/6 353/4/6
f 335/2/6 348/2/6 353/2/6
f 344/4/6 341/4/6 353/4/6
f 348/2/6 349/2/6 353/2/6
f 353/2/6 349/2/6 354/2/6
f 354/2/6 349/2/6 355/2/6
f 355/2/6 349/2/6 356/2/6
f 350/2/6 351/2/6 358/2/6
f 351/4/6 352/4/6 359/4/6
f 352/4/6 353/4/6 359/4/6
f 358/2/6 351/2/6 359/2/6
f 353/4/6 354/4/6 359/4/6
f 359/4/6 354/4/6 360/4/6
f 360/4/6 354/4/6 361/4/6
f 355/4/6 356/4/6 362/4/6
f 362/4/6 356/4/6 363/4/6
f 358/4/6 359/4/6 364/4/6
f 359/4/6 360/4/6 364/4/6
f 361/4/6 362/4/6 365/4/6
f 365/4/6 362/4/6 366/4/6
f 363/4/6 356/4/6 367/4/6
f 357/2/6 358/2/6 368/2/6
f 366/4/6 367/4/6 369/4/6
f 368/2/6 358/2/6 369/2/6
f 365/4/6 366/4/6 369/4/6
f 358/4/6 364/4/6 369/4/6
f 364/4/6 365/4/6 369/4/6
f 369/4/6 367/4/6 370/4/6
f 370/4/6 367/4/6 371/4/6
f 371/4/6 367/4/6 372/4/6
f 372/4/6 367/4/6 373/4/6
f 367/4/6 356/4/6 374/4/6
f 373/4/6 367/4/6 374/4/6
f 356/2/6 349/2/6 375/2/6
f 374/4/6 356/4/6 375/4/6
f 369/2/6 370/2/6 376/2/6
f 370/4/6 371/4/6 377/4/6
f 376/2/6 370/2/6 377/2/6
f 377/4/6 371/4/6 378/4/6
f 372/2/6 373/2/6 379/2/6
f 379/2/6 373/2/6 380/2/6
f 374/2/6 375/2/6 381/2/6
f 375/2/6 349/2/6 382/2/6
f 381/2/6 375/2/6 382/2/6
f 377/2/6 378/2/6 383/2/6
f 378/4/6 371/4/6 384/4/6
f 383/2/6 378/2/6 384/2/6
f 384/4/6 371/4/6 385/4/6
f 385/4/6 371/4/6 386/4/6
f 384/2/6 385/2/6 389/2/6
f 386/4/6 387/4/6 390/4/6
f 389/2/6 385/2/6 390/2/6
f 385/4/6 386/4/6 390/4/6
f 390/4/6 387/4/6 391/4/6
f 390/2/6 391/2/6 392/2/6
f 391/4/6 387/4/6 393/4/6
f 392/2/6 391/2/6 393/2/6
f 393/4/6 387/4/6 394/4/6
f 393/2/6 394/2/6 395/2/6
f 394/4/6 387/4/6 396/4/6
f 395/2/6 394/2/6 396/2/6
f 396/4/6 387/4/6 397/4/6
f 396/2/6 397/2/6 398/2/6
f 397/4/6 387/4/6 399/4/6
f 398/2/6 397/2/6 399/2/6
f 387/2/6 388/2/6 400/2/6
f 399/4/6 387/4/6 400/4/6
f 399/2/6 400/2/6 401/2/6
f 400/2/6 388/2/6 402/2/6
f 401/2/6 400/2/6 402/2/6
f 402/2/6 388/2/6 403/2/6
f 403/2/6 388/2/6 404/2/6
f 405/5/6 406/5/6 408/5/6
f 408/5/6 406/5/6 409/5/6
f 407/5/6 408/5/6 411/5/6
f 411/5/6 408/5/6 412/5/6
f 409/5/6 410/5/6 413/5/6
f 413/5/6 410/5/6 414/5/6
f 415/5/6 416/5/6 419/5/6
f 419/5/6 416/5/6 420/5/6
f 417/5/6 418/5/6 421/5/6
f 421/5/6 418/5/6 422/5/6
